<?xml version="1.0" encoding="utf-8"?>
<!-- Generator: Adobe Illustrator 25.0.0, SVG Export Plug-In . SVG Version: 6.00 Build 0)  -->
<svg version="1.1" id="Capa_1" xmlns="http://www.w3.org/2000/svg" xmlns:xlink="http://www.w3.org/1999/xlink" x="0px" y="0px"
	 viewBox="0 0 1551 449" style="enable-background:new 0 0 1551 449;" xml:space="preserve">
<style type="text/css">
	.st0{display:none;}
	.st1{display:inline;}
	.st2{fill:none;stroke:#000000;stroke-miterlimit:10;}
	.st3{display:none;fill:#141414;}
	.st4{fill:#EAB815;}
	.st5{fill:#141414;}
	.st6{fill:#FFFFFF;}
	.st7{fill:#A7D129;}
	.st8{display:inline;fill:none;stroke:#000000;stroke-width:38;stroke-miterlimit:10;}
	.st9{display:inline;fill:#FFFFFF;}
	.st10{display:inline;fill:#A7D129;}
	.st11{fill:none;stroke:#B535F6;stroke-width:20;stroke-miterlimit:10;}
	.st12{fill:#B535F6;}
</style>
<g id="Capa_1_3_" class="st0">
	<g id="Capa_1_2_" class="st1">
		<g id="Capa_1_1_">
			<g>
				<circle class="st2" cx="440.3" cy="86.4" r="150"/>
				<circle class="st2" cx="440.3" cy="86.4" r="110"/>
			</g>
			<g>
				<circle class="st2" cx="740.3" cy="86.4" r="150"/>
				<circle class="st2" cx="740.3" cy="86.4" r="110"/>
			</g>
			<g>
				<circle class="st2" cx="440.3" cy="386.4" r="150"/>
				<circle class="st2" cx="440.3" cy="386.4" r="110"/>
			</g>
			<g>
				<circle class="st2" cx="740.3" cy="386.4" r="150"/>
				<circle class="st2" cx="740.3" cy="386.4" r="110"/>
			</g>
			<g>
				<circle class="st2" cx="440.3" cy="236.4" r="150"/>
				<circle class="st2" cx="440.3" cy="236.4" r="110"/>
			</g>
			<g>
				<circle class="st2" cx="740.3" cy="236.4" r="150"/>
				<circle class="st2" cx="740.3" cy="236.4" r="110"/>
			</g>
		</g>
		<g id="Capa_2_1_">
			<path class="st3" d="M617-23C478.9-23,367,88.9,367,227s111.9,250,250,250s250-111.9,250-250S755.1-23,617-23z M617,402
				c-96.6,0-175-78.4-175-175S520.4,52,617,52c83.8,0,153.8,58.9,171,137.5H616.5v75H788C770.8,343.1,700.8,402,617,402z"/>
			<path class="st4" d="M617-129.2c-138.1,0-250,111.9-250,250v450h75v-450c0-96.6,78.4-175,175-175s175,78.4,175,175v450h75v-450
				C867-17.3,755.1-129.2,617-129.2z"/>
			<path class="st5" d="M787.9,295.7C788,295.7,788,295.7,787.9,295.7H616.5v75H788c-17.2,78.6-87.2,137.5-171,137.5
				c-96.6,0-175-78.4-175-175s78.4-175,175-175c37.8,0,72.8,12,101.4,32.4L772,137c-42.6-33.7-96.4-53.8-155-53.8
				c-138.1,0-250,111.9-250,250s111.9,250,250,250s250-111.9,250-250c0-12.8-1-25.3-2.8-37.5H787.9z"/>
		</g>
	</g>
	<g class="st1">
		<path class="st6" d="M421.5,305.4V103.1c0-27.2,8.5-49.6,25.5-67.1c17.9-18.3,41.2-27.4,70-27.4c28.2,0,51.6,9.1,70,27.4
			c17,16.9,25.5,39.3,25.5,67.1v185.3l-35.9,17h-1.9V172.3H459.3v116.1l-35.9,17H421.5z M459.3,137.9h115.3v-34.8
			c0-16.9-4.5-30.6-13.6-41c-11.2-13-25.9-19.5-44.1-19.5c-18.2,0-32.8,6.5-44.1,19.5c-9.1,10.5-13.6,24.1-13.6,41v34.8H459.3z"/>
	</g>
	<g class="st1">
		<path class="st7" d="M812.5,279.8V349c0,27.4-8.5,49.7-25.5,67.1c-17.9,18.3-41.2,27.4-70,27.4c-28.7,0-52.1-9.1-70-27.4
			c-17-17.4-25.5-39.8-25.5-67.1V245c0-27.4,8.5-49.7,25.5-67.1c17.9-18.3,41.2-27.4,70-27.4c29.7,0,53.1,9.1,70.1,27.4
			s25.4,39.4,25.4,63.3l-35.9,17h-1.9V245c0-16.9-4.5-30.6-13.6-41c-11.2-13-25.9-19.5-44.1-19.5s-32.8,6.5-44.1,19.5
			c-9.1,10.5-13.6,24.1-13.6,41v104c0,16.9,4.5,30.6,13.6,41c11.2,13,25.9,19.5,44.1,19.5s32.8-6.5,44.1-19.5
			c9.1-10.5,13.6-22.9,13.6-37.2v-38.6h-65.8v-1.9l15.3-32.5H812.5z"/>
	</g>
	<circle class="st8" cx="617" cy="227" r="300"/>
	<rect x="313.5" y="267.6" class="st9" width="145.8" height="37.9"/>
	<path class="st9" d="M875.2,335.3C832.9,436.2,733.2,507,617,507c-140.9,0-257.4-104-277.1-239.4h-39.6
		c20,157.1,154.1,278.6,316.7,278.6c138.3,0,256-87.9,300.4-210.9L875.2,335.3L875.2,335.3z"/>
	<rect x="774.7" y="221" class="st10" width="145.3" height="37.9"/>
	<path class="st10" d="M617-92.2c-164.2,0-299.4,123.9-317.2,283.4h39.5C356.9,53.4,474.5-53,617-53c154.6,0,280,125.4,280,280
		c0,10.8-0.6,21.4-1.8,31.9h39.5c1-10.5,1.6-21.1,1.6-31.9C936.2,50.7,793.3-92.2,617-92.2z"/>
</g>
<path class="st11" d="M483.1,419H54.9c-10.7,0-19.3-8.6-19.3-19.3V49.3c0-10.7,8.6-19.3,19.3-19.3h428.2c10.7,0,19.3,8.6,19.3,19.3
	v350.4C502.4,410.4,493.8,419,483.1,419z"/>
<g>
	<path class="st6" d="M138.6,338c0,4.4-0.9,7.6-2.6,9.6c-1.8,2-4.7,3-8.6,3H81.3c-4,0-6.8-1-8.6-3c-1.8-1.9-2.6-5.2-2.6-9.6v-92.5
		c0-7,1-15.1,3-24.2s5.1-19.8,9.3-31.9l27.3-79.5c1.2-4,3.2-6.8,5.8-8.8c2.6-1.9,6-2.8,10.2-2.8h84.4c4,0,7.2,0.9,9.9,2.8
		c2.6,1.9,4.5,4.8,5.8,8.8l27.2,79.6c4.2,12.1,7.2,22.8,9.3,31.9s3,17.2,3,24.2v92.5c0,4.4-0.9,7.6-2.6,9.6s-4.7,3-8.6,3h-47.4
		c-4.2,0-7.2-1-9.3-3c-2-1.9-3-5.2-3-9.6v-49h-55.5V338H138.6z M156.5,172l-14.8,53.2H191L176.2,172c-0.9-2.1-1.7-3.6-2.6-4.6
		c-0.9-0.9-2-1.4-3.3-1.4h-7.9c-1.2,0-2.3,0.5-3.3,1.4C158.2,168.3,157.3,169.9,156.5,172z"/>
</g>
<g>
	<path class="st12" d="M455.4,350.6h-98.8c-26.1,0-45.5-5.8-58.2-17.5s-19-29.6-19-53.9V169.9c0-24.3,6.3-42.2,19-53.9
		s32.1-17.5,58.2-17.5H435c4,0,6.8,1,8.6,3s2.6,5.2,2.6,9.6v42.4c0,4.4-0.9,7.6-2.6,9.6c-1.8,2-4.7,3-8.6,3h-65.3
		c-6.5,0-11.3,1.5-14.4,4.4c-3.1,3-4.7,7.3-4.7,13.1v83.7c0,5.8,1.2,10.2,3.6,13s6,4.2,10.8,4.2h30.4v-54.6c0-4.4,0.9-7.6,2.6-9.6
		c1.8-1.9,4.7-3,8.6-3h48.6c4,0,6.8,1,8.6,3s2.6,5.2,2.6,9.6v108.2c0,4.4-0.9,7.6-2.6,9.6C462.3,349.6,459.4,350.6,455.4,350.6z"/>
</g>
<g>
	<path class="st6" d="M596.9,189h-49.3c-2,0-3.4-0.4-4.3-1.3c-0.9-0.9-1.3-2.3-1.3-4.3v-18.3c0-2,0.4-3.4,1.3-4.3
		c0.9-0.9,2.3-1.3,4.3-1.3h42c1.4,0,2.4-0.4,3-1.3c0.7-0.9,1-1.9,1-3.2c0-1.8-0.3-3.1-1-3.9c-0.7-0.8-1.7-1.3-3-1.4l-23.4-3.3
		c-7.3-1-13.1-3.4-17.5-7.2c-4.4-3.7-6.6-10-6.6-18.7v-16.4c0-8.8,2.9-15.6,8.6-20.4c5.7-4.7,13.6-7.1,23.7-7.1h43.7
		c2,0,3.4,0.4,4.3,1.3c0.9,0.9,1.3,2.3,1.3,4.3v18.6c0,2-0.4,3.4-1.3,4.3c-0.9,0.9-2.3,1.3-4.3,1.3h-36.3c-1.4,0-2.4,0.4-3.1,1.3
		c-0.7,0.9-1.1,2-1.1,3.4c0,1.4,0.4,2.5,1.1,3.4c0.7,0.9,1.8,1.5,3.1,1.6l23.2,3.1c7.3,1,13.2,3.4,17.6,7.2c4.5,3.7,6.7,10,6.7,18.7
		v16.4c0,8.8-2.9,15.6-8.7,20.4C614.7,186.6,606.9,189,596.9,189z"/>
	<path class="st6" d="M697.6,189h-25.3c-2,0-3.4-0.4-4.3-1.3c-0.9-0.9-1.3-2.3-1.3-4.3v-76.6h-22.9c-2,0-3.4-0.4-4.3-1.3
		c-0.9-0.9-1.3-2.3-1.3-4.3V82.3c0-2,0.4-3.4,1.3-4.3c0.9-0.9,2.3-1.3,4.3-1.3h82.4c2,0,3.4,0.4,4.3,1.3c0.9,0.9,1.3,2.3,1.3,4.3
		v18.9c0,2-0.4,3.4-1.3,4.3c-0.9,0.9-2.3,1.3-4.3,1.3h-22.9v76.6c0,2-0.4,3.4-1.3,4.3C701,188.6,699.6,189,697.6,189z"/>
	<path class="st6" d="M776.6,189h-24c-2,0-3.4-0.4-4.3-1.3c-0.9-0.9-1.3-2.3-1.3-4.3V82.3c0-2,0.4-3.4,1.3-4.3
		c0.9-0.9,2.3-1.3,4.3-1.3h51.9c11.6,0,19.7,2.4,24.1,7.3c4.4,4.8,6.6,11.1,6.6,18.8v7.2c0,4.4-0.7,8.1-1.9,11.2
		c-1.3,3.1-3.6,5.3-6.8,6.6c5.6,0.6,10.2,2.9,13.6,6.9c3.5,4,5.2,9.2,5.2,15.8v33.1c0,2-0.4,3.4-1.3,4.3c-0.9,0.9-2.3,1.3-4.3,1.3
		h-24.2c-2,0-3.4-0.4-4.3-1.3c-0.9-0.9-1.3-2.3-1.3-4.3v-23.9c0-2.3-0.4-4-1.3-5.1c-0.9-1.1-2.4-1.6-4.6-1.6h-21.8v30.6
		c0,2-0.4,3.4-1.3,4.3C780,188.6,778.6,189,776.6,189z M782.2,104.8v20h11.7c2.7,0,4.5-0.7,5.5-2.1c0.9-1.4,1.4-3.1,1.4-5.2v-5.3
		c0-2.1-0.5-3.8-1.4-5.2c-0.9-1.4-2.8-2.1-5.5-2.1H782.2z"/>
	<path class="st6" d="M940.8,189h-72.4c-2,0-3.4-0.4-4.3-1.3c-0.9-0.9-1.3-2.3-1.3-4.3V82.3c0-2,0.4-3.4,1.3-4.3
		c0.9-0.9,2.3-1.3,4.3-1.3h72.4c2,0,3.4,0.4,4.3,1.3c0.9,0.9,1.3,2.3,1.3,4.3v18.3c0,2-0.4,3.4-1.3,4.3c-0.9,0.9-2.3,1.3-4.3,1.3
		h-43.1v12h30.4c2,0,3.4,0.4,4.3,1.3c0.9,0.9,1.3,2.3,1.3,4.3v16.7c0,2-0.4,3.4-1.3,4.3c-0.9,0.9-2.3,1.3-4.3,1.3h-30.4v13.4h43.1
		c2,0,3.4,0.4,4.3,1.3c0.9,0.9,1.3,2.3,1.3,4.3v18.3c0,2-0.4,3.4-1.3,4.3C944.3,188.6,942.8,189,940.8,189z"/>
	<path class="st6" d="M996.7,183.4c0,2-0.4,3.4-1.3,4.3c-0.9,0.9-2.3,1.3-4.3,1.3h-22.9c-2,0-3.4-0.4-4.3-1.3
		c-0.9-0.9-1.3-2.3-1.3-4.3v-41.2c0-3.1,0.5-6.7,1.5-10.8c1-4.1,2.5-8.8,4.6-14.2l13.6-35.4c0.6-1.8,1.6-3.1,2.9-3.9
		c1.3-0.8,3-1.2,5.1-1.2h42c2,0,3.6,0.4,4.9,1.2c1.3,0.8,2.3,2.1,2.9,3.9l13.6,35.4c2.1,5.4,3.6,10.1,4.6,14.2
		c1,4.1,1.5,7.6,1.5,10.8v41.2c0,2-0.4,3.4-1.3,4.3c-0.9,0.9-2.3,1.3-4.3,1.3h-23.6c-2.1,0-3.6-0.4-4.6-1.3c-1-0.9-1.5-2.3-1.5-4.3
		v-21.8h-27.6V183.4z M1005.6,109.4l-7.3,23.7h24.5l-7.3-23.7c-0.4-0.9-0.9-1.6-1.3-2c-0.5-0.4-1-0.6-1.6-0.6h-3.9
		c-0.6,0-1.2,0.2-1.6,0.6C1006.4,107.8,1006,108.5,1005.6,109.4z"/>
	<path class="st6" d="M1107.6,189h-23.2c-2,0-3.4-0.4-4.3-1.3c-0.9-0.9-1.3-2.3-1.3-4.3V82.3c0-2,0.4-3.4,1.3-4.3
		c0.9-0.9,2.3-1.3,4.3-1.3h25.1c1.7,0,3,0.4,4.1,1.1c1.1,0.7,2.1,1.9,3,3.6l14,25.4c0.5,0.9,1,1.6,1.3,2c0.4,0.4,0.9,0.6,1.5,0.6
		h1.4c0.6,0,1.1-0.2,1.5-0.6c0.4-0.4,0.8-1.1,1.3-2l13.9-25.4c0.9-1.7,2-2.9,3-3.6c1.1-0.7,2.5-1.1,4.1-1.1h25.3
		c2,0,3.4,0.4,4.3,1.3c0.9,0.9,1.3,2.3,1.3,4.3v101.1c0,2-0.4,3.4-1.3,4.3c-0.9,0.9-2.3,1.3-4.3,1.3h-24c-2,0-3.4-0.4-4.3-1.3
		c-0.9-0.9-1.3-2.3-1.3-4.3v-54.9l-9.2,17c-0.9,1.8-2.1,3-3.4,3.8c-1.3,0.8-2.9,1.2-4.9,1.2h-6.2c-2,0-3.6-0.4-4.9-1.2
		c-1.3-0.8-2.4-2.1-3.4-3.8l-9.2-17v54.9c0,2-0.4,3.4-1.3,4.3C1111,188.6,1109.6,189,1107.6,189z"/>
	<path class="st6" d="M1214.3,189c-2,0-3.4-0.4-4.3-1.3c-0.9-0.9-1.3-2.3-1.3-4.3v-18.6c0-2,0.4-3.4,1.3-4.3
		c0.9-0.9,2.3-1.3,4.3-1.3h15.4v-52.4h-15.4c-2,0-3.4-0.4-4.3-1.3c-0.9-0.9-1.3-2.3-1.3-4.3V82.3c0-2,0.4-3.4,1.3-4.3
		c0.9-0.9,2.3-1.3,4.3-1.3h66.5c2,0,3.4,0.4,4.3,1.3c0.9,0.9,1.3,2.3,1.3,4.3v18.9c0,2-0.4,3.4-1.3,4.3c-0.9,0.9-2.3,1.3-4.3,1.3
		h-15.1v52.4h15.1c2,0,3.4,0.4,4.3,1.3c0.9,0.9,1.3,2.3,1.3,4.3v18.6c0,2-0.4,3.4-1.3,4.3c-0.9,0.9-2.3,1.3-4.3,1.3H1214.3z"/>
	<path class="st6" d="M1334.6,189h-23.4c-2,0-3.4-0.4-4.3-1.3c-0.9-0.9-1.3-2.3-1.3-4.3V82.3c0-2,0.4-3.4,1.3-4.3
		c0.9-0.9,2.3-1.3,4.3-1.3h16.2c2,0,3.7,0.3,5.1,0.9s2.8,1.7,4.1,3.3l30.3,34.6V82.3c0-2,0.4-3.4,1.3-4.3c0.9-0.9,2.3-1.3,4.3-1.3
		h23.4c2,0,3.4,0.4,4.3,1.3c0.9,0.9,1.3,2.3,1.3,4.3v101.1c0,2-0.4,3.4-1.3,4.3c-0.9,0.9-2.3,1.3-4.3,1.3h-23.4
		c-2,0-3.4-0.4-4.3-1.3c-0.9-0.9-1.3-2.3-1.3-4.3v-19.2l-26.7-32.3v51.5c0,2-0.4,3.4-1.3,4.3C1338,188.6,1336.6,189,1334.6,189z"/>
	<path class="st6" d="M1508.8,189h-49.1c-13,0-22.6-2.6-28.9-7.8c-6.3-5.2-9.4-13.2-9.4-24v-48.7c0-10.8,3.1-18.8,9.4-24
		c6.3-5.2,15.9-7.8,28.9-7.8h39c2,0,3.4,0.4,4.3,1.3c0.9,0.9,1.3,2.3,1.3,4.3v18.9c0,2-0.4,3.4-1.3,4.3c-0.9,0.9-2.3,1.3-4.3,1.3
		h-32.4c-3.2,0-5.6,0.7-7.2,1.9c-1.6,1.3-2.3,3.3-2.3,5.9v37.3c0,2.6,0.6,4.5,1.8,5.8c1.2,1.2,3,1.9,5.4,1.9h15.1v-24.3
		c0-2,0.4-3.4,1.3-4.3c0.9-0.9,2.3-1.3,4.3-1.3h24.2c2,0,3.4,0.4,4.3,1.3c0.9,0.9,1.3,2.3,1.3,4.3v48.2c0,2-0.4,3.4-1.3,4.3
		C1512.2,188.6,1510.8,189,1508.8,189z"/>
	<path class="st6" d="M573.6,376.2h-23.2c-2,0-3.4-0.4-4.3-1.3c-0.9-0.9-1.3-2.3-1.3-4.3V269.5c0-2,0.4-3.4,1.3-4.3
		c0.9-0.9,2.3-1.3,4.3-1.3h25.1c1.7,0,3,0.4,4.1,1.1c1.1,0.7,2.1,1.9,3,3.6l14,25.4c0.5,0.9,1,1.6,1.3,2c0.4,0.4,0.9,0.6,1.5,0.6
		h1.4c0.6,0,1.1-0.2,1.5-0.6c0.4-0.4,0.8-1.1,1.3-2l13.9-25.4c0.9-1.7,2-2.9,3-3.6c1.1-0.7,2.5-1.1,4.1-1.1h25.3
		c2,0,3.4,0.4,4.3,1.3c0.9,0.9,1.3,2.3,1.3,4.3v101.1c0,2-0.4,3.4-1.3,4.3c-0.9,0.9-2.3,1.3-4.3,1.3h-24c-2,0-3.4-0.4-4.3-1.3
		c-0.9-0.9-1.3-2.3-1.3-4.3v-54.9l-9.2,17c-0.9,1.8-2.1,3-3.4,3.8c-1.3,0.8-2.9,1.2-4.9,1.2h-6.2c-2,0-3.6-0.4-4.9-1.2
		c-1.3-0.8-2.4-2.1-3.4-3.8l-9.2-17v54.9c0,2-0.4,3.4-1.3,4.3C577,375.8,575.6,376.2,573.6,376.2z"/>
	<path class="st6" d="M772.4,346.7c0,4.8-0.7,9.1-2.1,13c-1.4,3.9-3.9,7.2-7.5,10s-8.5,4.9-14.8,6.5c-6.3,1.6-14.3,2.3-23.9,2.3
		c-9.7,0-17.7-0.8-24-2.3c-6.3-1.6-11.3-3.7-14.9-6.5c-3.6-2.8-6.1-6.1-7.5-10c-1.4-3.9-2.1-8.2-2.1-13v-53.2c0-4.8,0.7-9.1,2.1-13
		c1.4-3.9,3.9-7.3,7.5-10.1c3.6-2.8,8.6-5,14.9-6.6c6.3-1.6,14.4-2.3,24-2.3c9.7,0,17.7,0.8,23.9,2.3c6.3,1.6,11.2,3.7,14.8,6.6
		s6.1,6.2,7.5,10.1c1.4,3.9,2.1,8.2,2.1,13V346.7z M710.9,341.1c0,2.1,0.8,3.8,2.3,5.2c1.6,1.4,5.1,2.1,10.8,2.1
		c5.6,0,9.2-0.7,10.8-2.1c1.6-1.4,2.3-3.1,2.3-5.2v-42c0-2-0.8-3.7-2.3-5.1c-1.6-1.4-5.1-2.1-10.8-2.1c-5.6,0-9.2,0.7-10.8,2.1
		c-1.6,1.4-2.3,3.1-2.3,5.1V341.1z"/>
	<path class="st6" d="M858.6,376.2h-40.6c-2,0-3.6-0.4-4.9-1.1c-1.3-0.7-2.3-2.1-3-4.1l-15.3-38.2c-0.9-2.3-1.7-4.3-2.3-6
		c-0.6-1.7-1.1-3.4-1.6-4.9c-0.4-1.6-0.7-3.2-0.9-4.9c-0.2-1.7-0.2-3.8-0.2-6.3v-41.2c0-2,0.4-3.4,1.3-4.3c0.9-0.9,2.3-1.3,4.3-1.3
		h24.8c2,0,3.5,0.4,4.5,1.3c1,0.9,1.6,2.3,1.6,4.3v43.1c0,1,0.1,2.1,0.3,3.1c0.2,1,0.5,2.1,0.9,3.3l7.3,21.8c0.3,1,0.7,1.7,1.1,2.1
		c0.4,0.4,1,0.5,1.9,0.5h1.7c0.8,0,1.5-0.2,1.9-0.5c0.4-0.4,0.8-1.1,1.1-2.1l7.3-22c0.4-1.1,0.7-2.2,0.9-3.3c0.2-1,0.3-2.1,0.3-3.1
		v-42.9c0-2,0.4-3.4,1.3-4.3c0.9-0.9,2.3-1.3,4.3-1.3h24.5c2,0,3.4,0.4,4.3,1.3c0.9,0.9,1.3,2.3,1.3,4.3v41.2c0,2.5-0.1,4.6-0.2,6.3
		c-0.2,1.7-0.4,3.4-0.9,4.9c-0.4,1.6-0.9,3.2-1.6,4.9c-0.6,1.7-1.4,3.7-2.3,6l-15.3,38.2c-0.7,2-1.7,3.3-3,4.1
		C862.2,375.8,860.6,376.2,858.6,376.2z"/>
	<path class="st6" d="M909.2,376.2c-2,0-3.4-0.4-4.3-1.3c-0.9-0.9-1.3-2.3-1.3-4.3V352c0-2,0.4-3.4,1.3-4.3c0.9-0.9,2.3-1.3,4.3-1.3
		h15.4V294h-15.4c-2,0-3.4-0.4-4.3-1.3c-0.9-0.9-1.3-2.3-1.3-4.3v-18.9c0-2,0.4-3.4,1.3-4.3c0.9-0.9,2.3-1.3,4.3-1.3h66.5
		c2,0,3.4,0.4,4.3,1.3c0.9,0.9,1.3,2.3,1.3,4.3v18.9c0,2-0.4,3.4-1.3,4.3c-0.9,0.9-2.3,1.3-4.3,1.3h-15.1v52.4h15.1
		c2,0,3.4,0.4,4.3,1.3c0.9,0.9,1.3,2.3,1.3,4.3v18.6c0,2-0.4,3.4-1.3,4.3c-0.9,0.9-2.3,1.3-4.3,1.3H909.2z"/>
	<path class="st6" d="M1078.4,376.2h-72.4c-2,0-3.4-0.4-4.3-1.3c-0.9-0.9-1.3-2.3-1.3-4.3V269.5c0-2,0.4-3.4,1.3-4.3
		c0.9-0.9,2.3-1.3,4.3-1.3h72.4c2,0,3.4,0.4,4.3,1.3c0.9,0.9,1.3,2.3,1.3,4.3v18.3c0,2-0.4,3.4-1.3,4.3c-0.9,0.9-2.3,1.3-4.3,1.3
		h-43.1v12h30.4c2,0,3.4,0.4,4.3,1.3c0.9,0.9,1.3,2.3,1.3,4.3v16.7c0,2-0.4,3.4-1.3,4.3c-0.9,0.9-2.3,1.3-4.3,1.3h-30.4v13.4h43.1
		c2,0,3.4,0.4,4.3,1.3c0.9,0.9,1.3,2.3,1.3,4.3v18.3c0,2-0.4,3.4-1.3,4.3C1081.8,375.8,1080.4,376.2,1078.4,376.2z"/>
</g>
</svg>
